<svg width="14" height="14" viewBox="0 0 14 14" fill="current" xmlns="http://www.w3.org/2000/svg">
  <path fill-rule="evenodd" clip-rule="evenodd" d="M12.6714 1.27812C12.2808 0.887599 11.6477 0.887598 11.2571 1.27812L7.00001 5.53526L2.74287 1.27812C2.35234 0.887598 1.71918 0.887599 1.32865 1.27812L1.27809 1.32868C0.887568 1.71921 0.887568 2.35237 1.27809 2.7429L5.53523 7.00004L1.27809 11.2572C0.887568 11.6477 0.887568 12.2809 1.27809 12.6714L1.32865 12.722C1.71918 13.1125 2.35234 13.1125 2.74287 12.722L7.00001 8.46481L11.2572 12.722C11.6477 13.1125 12.2808 13.1125 12.6714 12.722L12.7219 12.6714C13.1124 12.2809 13.1124 11.6477 12.7219 11.2572L8.46478 7.00004L12.7219 2.7429C13.1124 2.35237 13.1124 1.71921 12.7219 1.32868L12.6714 1.27812Z" fill="current"/>
</svg>
