<svg width="14" height="10" viewBox="0 0 14 10" fill="current" xmlns="http://www.w3.org/2000/svg">
  <path fill-rule="evenodd" clip-rule="evenodd" d="M3.99999 4.69561C3.99999 6.35261 5.34299 7.69561 6.99999 7.69561C8.65699 7.69561 9.99999 6.35261 9.99999 4.69561C9.99999 3.03861 8.65699 1.69561 6.99999 1.69561C5.34299 1.69561 3.99999 3.03861 3.99999 4.69561ZM6.99999 0.000610352C9.97299 0.000610352 12.566 1.88161 13.96 4.67761C14.013 4.78261 14.013 4.91261 13.96 5.01761C12.566 7.81461 9.97299 9.69561 6.99999 9.69561C4.02699 9.69561 1.43399 7.81461 0.0399941 5.01761C-0.0130059 4.91261 -0.0130059 4.78261 0.0399941 4.67761C1.43399 1.88161 4.02699 0.000610352 6.99999 0.000610352ZM6.99999 3.57061C6.99999 4.19161 7.50399 4.69561 8.12499 4.69561C8.57799 4.69561 8.96299 4.42461 9.14099 4.03861C9.20599 4.24761 9.24999 4.46561 9.24999 4.69561C9.24999 5.93861 8.24299 6.94561 6.99999 6.94561C5.75699 6.94561 4.74999 5.93861 4.74999 4.69561C4.74999 3.45261 5.75699 2.44561 6.99999 2.44561C7.22999 2.44561 7.44799 2.49061 7.65699 2.55461C7.27099 2.73261 6.99999 3.11761 6.99999 3.57061Z" fill="current"/>
</svg>
