<svg width="16" height="16" viewBox="0 0 16 16" fill="none" xmlns="http://www.w3.org/2000/svg">
  <path fill-rule="evenodd" clip-rule="evenodd" d="M9.5561 6.20732H12.8691C15.3671 6.20732 13.2681 13.6203 10.9961 13.9353C9.7181 14.1123 8.4981 13.9353 6.0001 13.2323V6.20732C6.5151 3.27032 7.1141 2.32932 7.6371 2.08332L7.6321 2.08032C7.6321 2.08032 7.6571 2.06932 7.6941 2.05632C7.7391 2.03932 7.7831 2.02832 7.8261 2.02032L7.8321 2.01932C7.8611 2.01432 7.8901 2.00932 7.9201 2.00732C8.1261 1.98332 8.4141 2.00732 8.7051 2.23132C8.7051 2.23132 8.7101 2.23632 8.7121 2.23732L8.7131 2.23832C8.7231 2.24632 8.7471 2.27032 8.7901 2.32832C8.8601 2.41232 8.9251 2.51332 8.9821 2.63932C8.98272 2.64055 8.98334 2.64141 8.98419 2.64259C8.98472 2.64332 8.98534 2.64417 8.9861 2.64532C8.99018 2.65348 8.99188 2.65927 8.99359 2.66505C8.9948 2.66919 8.99602 2.67332 8.9981 2.67832C9.4821 3.78932 9.5561 6.20732 9.5561 6.20732ZM2 13.2069V6.90792L5 6.20792V13.2069H2Z" fill="#B4B4B4"/>
</svg>
