<svg width="20" height="20" viewBox="0 0 20 20" fill="current" xmlns="http://www.w3.org/2000/svg">
  <path fill-rule="evenodd" clip-rule="evenodd" d="M2 10C2 6.134 5.582 3 10 3C14.418 3 18 6.134 18 10C18 13.866 14.418 17 10 17C8.329 17 6.779 16.551 5.496 15.784L2.386 16.717C2.36 16.724 2.334 16.727 2.31 16.727C2.109 16.727 1.957 16.51 2.039 16.301L3.063 13.477C2.391 12.452 2 11.267 2 10ZM17 10C17 6.691 13.86 4 10 4C6.14 4 3 6.691 3 10C3 11.019 3.311 12.032 3.899 12.928L4.174 13.347L4.003 13.818L3.446 15.355L5.208 14.826L5.63 14.7L6.009 14.926C7.186 15.628 8.565 16 10 16C13.86 16 17 13.309 17 10ZM5 10C5 10.552 5.448 11 6 11C6.552 11 7 10.552 7 10C7 9.448 6.552 9 6 9C5.448 9 5 9.448 5 10ZM10 11C9.448 11 9 10.552 9 10C9 9.448 9.448 9 10 9C10.552 9 11 9.448 11 10C11 10.552 10.552 11 10 11ZM13 10C13 10.552 13.448 11 14 11C14.552 11 15 10.552 15 10C15 9.448 14.552 9 14 9C13.448 9 13 9.448 13 10Z" fill="current"/>
</svg>
