<svg width="20" height="20" viewBox="0 0 20 20" fill="current" xmlns="http://www.w3.org/2000/svg">
<path fill-rule="evenodd" clip-rule="evenodd" d="M13.125 15.9575C12.875 15.9874 12.629 16.0024 12.373 16.0024C11.288 16.0024 10.014 15.731 8 15.2451V8.12093C8.455 5.08209 9.327 3.99765 9.995 3.99765C10.179 3.99765 10.351 4.0625 10.464 4.11836C10.976 4.36778 11.462 6.52669 11.464 8.55989L11.465 9.55754H12.464H15.586C15.713 9.55754 15.948 9.55754 15.994 10.3277C16.118 12.3879 14.375 15.8078 13.125 15.9575V15.9575ZM4 15.0306V9.86282L7 9.26423V15.0306H4ZM15.586 8.55989H12.464C12.464 8.55989 12.465 3.98468 10.904 3.22148C10.645 3.09478 10.332 3 9.995 3C8.917 3 7.595 3.97869 7 8.0471V8.24663L3 9.04475V16.0283H7C9.556 16.6528 11.042 17 12.373 17C12.667 17 12.955 16.983 13.245 16.9481C16.086 16.6059 18.708 8.55989 15.586 8.55989V8.55989Z" fill="current"/>
</svg>
